<svg width="112" height="26" viewBox="0 0 112 26" fill="none" xmlns="http://www.w3.org/2000/svg">
<g filter="url(#filter0_i_13_1656)">
<path d="M9.16016 0.792969C10.2383 0.792969 11.1523 1.17383 11.9023 1.93555C12.6641 2.69727 13.0449 3.61719 13.0449 4.69531V26H10.4434V4.4668C10.4434 4.10352 10.3203 3.79883 10.0742 3.55273C9.82812 3.30664 9.52344 3.18359 9.16016 3.18359C8.79688 3.18359 8.48633 3.30664 8.22852 3.55273C7.98242 3.79883 7.85938 4.10352 7.85938 4.4668V26H5.25781V4.4668C5.25781 4.10352 5.13477 3.79883 4.88867 3.55273C4.64258 3.30664 4.33789 3.18359 3.97461 3.18359C3.61133 3.18359 3.30078 3.30664 3.04297 3.55273C2.79688 3.79883 2.67383 4.10352 2.67383 4.4668V26H0.0722656V4.69531C0.0722656 3.61719 0.453125 2.69727 1.21484 1.93555C1.97656 1.17383 2.89648 0.792969 3.97461 0.792969C4.93555 0.792969 5.79688 1.13281 6.55859 1.8125C7.32031 1.13281 8.1875 0.792969 9.16016 0.792969ZM25.9895 26V0.792969H28.591V26H25.9895ZM50.6234 0.792969C51.7016 0.792969 52.6156 1.17383 53.3656 1.93555C54.1273 2.69727 54.5082 3.61719 54.5082 4.69531V26H51.9066V4.4668C51.9066 4.10352 51.7836 3.79883 51.5375 3.55273C51.2914 3.30664 50.9867 3.18359 50.6234 3.18359C50.2602 3.18359 49.9496 3.30664 49.6918 3.55273C49.4457 3.79883 49.3227 4.10352 49.3227 4.4668V26H46.7211V4.4668C46.7211 4.10352 46.598 3.79883 46.352 3.55273C46.1059 3.30664 45.8012 3.18359 45.4379 3.18359C45.0746 3.18359 44.7641 3.30664 44.5062 3.55273C44.2602 3.79883 44.1371 4.10352 44.1371 4.4668V26H41.5355V4.69531C41.5355 3.61719 41.9164 2.69727 42.6781 1.93555C43.4398 1.17383 44.3598 0.792969 45.4379 0.792969C46.3988 0.792969 47.2602 1.13281 48.0219 1.8125C48.7836 1.13281 49.6508 0.792969 50.6234 0.792969ZM67.4527 26V0.792969H70.0543V26H67.4527ZM88.1844 12.2188V0.792969H90.7859V26H88.1844V14.5918H85.6004V26H82.9988V0.792969H85.6004V12.2188H88.1844ZM104.891 1.93555C105.652 1.17383 106.572 0.792969 107.65 0.792969C108.729 0.792969 109.643 1.17383 110.393 1.93555C111.154 2.69727 111.535 3.61719 111.535 4.69531V22.1152C111.535 23.1934 111.154 24.1133 110.393 24.875C109.643 25.625 108.729 26 107.65 26C106.572 26 105.652 25.625 104.891 24.875C104.129 24.1133 103.748 23.1934 103.748 22.1152V4.69531C103.748 3.61719 104.129 2.69727 104.891 1.93555ZM108.934 22.3262V4.4668C108.934 4.10352 108.811 3.79883 108.564 3.55273C108.318 3.30664 108.014 3.18359 107.65 3.18359C107.287 3.18359 106.977 3.30664 106.719 3.55273C106.473 3.79883 106.35 4.10352 106.35 4.4668V22.3262C106.35 22.6895 106.473 23 106.719 23.2578C106.977 23.5039 107.287 23.627 107.65 23.627C108.014 23.627 108.318 23.5039 108.564 23.2578C108.811 23 108.934 22.6895 108.934 22.3262Z" fill="white"/>
</g>
<defs>
<filter id="filter0_i_13_1656" x="0.0722656" y="0.792969" width="111.463" height="29.207" filterUnits="userSpaceOnUse" color-interpolation-filters="sRGB">
<feFlood flood-opacity="0" result="BackgroundImageFix"/>
<feBlend mode="normal" in="SourceGraphic" in2="BackgroundImageFix" result="shape"/>
<feColorMatrix in="SourceAlpha" type="matrix" values="0 0 0 0 0 0 0 0 0 0 0 0 0 0 0 0 0 0 127 0" result="hardAlpha"/>
<feOffset dy="4"/>
<feGaussianBlur stdDeviation="2"/>
<feComposite in2="hardAlpha" operator="arithmetic" k2="-1" k3="1"/>
<feColorMatrix type="matrix" values="0 0 0 0 0 0 0 0 0 0 0 0 0 0 0 0 0 0 0.25 0"/>
<feBlend mode="normal" in2="shape" result="effect1_innerShadow_13_1656"/>
</filter>
</defs>
</svg>
